# xmcd
#
# Track frame offsets:
#	150
#	12182
#	29272
#	40098
#	55563
#	70633
#	92263
#	114794
#	128856
#	149824
#	169190
#
# Disc length: 2442 seconds
#
# Revision: 1
# Processed by: cddbd v1.5.2PL0 Copyright (c) Steve Scherf et al.
# Submitted via: EasyCDDAExtractor 7.5.0.1
#
DISCID=8409880b
DTITLE=La Virée - Bayous d'Acadie
DYEAR=2012
DGENRE=Country
TTITLE0=L'alexandra
TTITLE1=Levons Nos Verres
TTITLE2=Morning Doobie - Morning New
TTITLE3=Quand C'qu'on Était Moins Vieux
TTITLE4=La Courte Paille - Irish Washerwoman
TTITLE5=Une Vieille Guitare - Fisher's Hornpipe
TTITLE6=Bayous D'acadie
TTITLE7=Sherbrooke - Ronfleuse Gobeille
TTITLE8=Dance Crash - Grand Nuit Special
TTITLE9=Cuckoo's Nest - First Flight
TTITLE10=Père Capucin
EXTD=YEAR: 2012
EXTT0=
EXTT1=
EXTT2=
EXTT3=
EXTT4=
EXTT5=
EXTT6=
EXTT7=
EXTT8=
EXTT9=
EXTT10=
PLAYORDER=
